:SAMPLES-PER-SECOND 30
:FULLY-SPECIFIED
:DEGREES
19
root  82.0566 40.1251 -0.624111 -163.686 -88.4883 161.46
RightUpLeg  1.40638 -9.2098 -4.33359
RightLeg  9.0758 -7.89027 3.65899
RightFoot  -7.06553 -0.0112523 -0.969958
RightToes  -1.33073e-015 0 -3.6325e-017
Spine  6.00513 1.77741 0.932989
Spine1  3.64828 1.99916 0.221034
HEad  6.68356 -3.63601 0.0203256
LeftShoulder1  1.73323 -3.55818 -17.8527
LeftArm  -31.4354 14.3325 -12.2365
LeftForeArm  33.2369 -22.2406 -2.84097
LeftHand  -0.244104 0.0205437 5.32207
RightShoulder  1.01941 1.33271 14.1866
RightArm  -21.3527 -13.0421 10.8527
RightForeArm  -2.86034 24.1971 5.31197
RightHand  -2.67822 7.26832 -24.514
LeftUpLeg  1.51612 5.84802 -0.621303
LeftLeg  7.29348 17.2444 -1.51376
LeftFoot  -10.6924 0.0582014 1.05212
LeftToes  -7.82198e-011 2.46994e-011 -7.94165e-012
20
root  81.9247 40.0281 -0.514412 -161.166 -88.8739 158.532
RightUpLeg  1.01735 -10.7436 -4.48437
RightLeg  11.4408 -6.81058 2.89891
RightFoot  -8.17617 -0.0465165 -0.339885
RightToes  -1.33073e-015 0 -3.6325e-017
Spine  6.05896 1.68391 0.850183
Spine1  4.73025 1.88591 0.397071
HEad  8.32367 -3.25523 0.138622
LeftShoulder1  1.97471 -3.73316 -20.7943
LeftArm  -32.0897 16.0127 -13.8248
LeftForeArm  36.4548 -27.6372 -4.02687
LeftHand  -0.244104 0.0205437 5.32207
RightShoulder  1.29953 1.9318 17.2795
RightArm  -20.3435 -15.3413 12.0617
RightForeArm  0.200574 29.2268 6.33477
RightHand  -2.78343 7.57082 -24.8695
LeftUpLeg  1.92354 6.28933 -0.748953
LeftLeg  7.66019 16.6812 -1.31799
LeftFoot  -11.275 0.0675354 1.38642
LeftToes  -7.82198e-011 2.46994e-011 -7.94165e-012
21
root  81.8053 39.8597 -0.389547 -158.43 -89.1088 155.347
RightUpLeg  -0.137585 -13.9962 -4.37152
RightLeg  15.221 -3.81488 1.32288
RightFoot  -9.6685 -0.0659329 0.122324
RightToes  -1.33073e-015 0 -3.6325e-017
Spine  6.37167 1.6151 0.813676
Spine1  5.79507 1.80977 0.506201
HEad  9.61016 -2.92331 0.138676
LeftShoulder1  2.25545 -3.9598 -23.8882
LeftArm  -32.111 17.7371 -15.9543
LeftForeArm  39.0455 -32.2551 -4.90897
LeftHand  -0.244104 0.0205437 5.32207
RightShoulder  1.62614 2.58174 20.331
RightArm  -19.134 -17.2337 13.6631
RightForeArm  4.54175 32.557 6.93928
RightHand  -2.82386 7.76895 -24.8536
LeftUpLeg  2.37018 6.86608 -0.925428
LeftLeg  7.89701 16.7109 -1.14651
LeftFoot  -12.2272 0.087869 1.90185
LeftToes  -7.82198e-011 2.46994e-011 -7.94165e-012
22
root  81.7139 39.7228 -0.267691 -141.375 -88.7746 137.771
RightUpLeg  -2.01318 -15.8137 -4.46898
RightLeg  19.84 -1.3665 -0.606441
RightFoot  -10.3228 -0.0881442 1.81998
RightToes  -1.33073e-015 0 -3.6325e-017
Spine  7.40683 1.6993 -0.0644234
Spine1  6.32362 1.77247 0.556958
HEad  10.6249 -2.53875 -0.229529
LeftShoulder1  2.64863 -4.37949 -27.3956
LeftArm  -31.4896 19.6153 -18.0398
LeftForeArm  41.0254 -35.5363 -5.60052
LeftHand  -0.244104 0.0205437 5.32207
RightShoulder  1.93373 3.13408 22.8985
RightArm  -17.5495 -18.4216 16.0533
RightForeArm  9.0945 33.6867 6.97912
RightHand  -2.77321 7.75761 -24.447
LeftUpLeg  2.40173 7.72531 -1.40695
LeftLeg  9.4215 15.8855 -0.795459
LeftFoot  -12.7748 0.0997042 1.83247
LeftToes  -7.82198e-011 2.46994e-011 -7.94165e-012
23
root  81.6452 39.6046 -0.140031 -137.322 -87.7071 133.078
RightUpLeg  -4.91102 -12.2389 -5.14424
RightLeg  26.1784 -3.46886 -2.12989
RightFoot  -9.25704 -0.154139 4.87531
RightToes  -1.33073e-015 0 -3.6325e-017
Spine  9.03026 1.96895 -1.24333
Spine1  6.60779 1.91151 0.271992
HEad  11.0774 -1.94837 -0.614952
LeftShoulder1  3.16701 -5.00324 -31.1023
LeftArm  -29.9476 21.2205 -19.9097
LeftForeArm  41.9295 -36.5632 -5.815
LeftHand  -0.244104 0.0205437 5.32207
RightShoulder  2.23563 3.68625 24.9596
RightArm  -15.5518 -19.1389 19.2246
RightForeArm  12.0103 33.1041 6.65632
RightHand  -2.53063 7.09691 -23.5145
LeftUpLeg  2.11354 8.83394 -2.09077
LeftLeg  12.1614 14.4606 -0.316865
LeftFoot  -13.1656 0.0991169 1.29173
LeftToes  -7.82198e-011 2.46994e-011 -7.94165e-012
